<svg id="svg" version="1.1" xmlns="http://www.w3.org/2000/svg" xmlns:xlink="http://www.w3.org/1999/xlink" width="400" height="400" viewBox="0, 0, 400,400"><g id="svgg"><path id="path0" d="M48.000 171.533 L 48.000 311.067 57.000 313.479 C 61.950 314.805,73.419 315.915,82.487 315.945 C 102.187 316.011,169.925 332.653,187.515 341.749 C 199.005 347.691,200.995 347.691,212.485 341.749 C 230.075 332.653,297.813 316.011,317.513 315.945 C 326.581 315.915,338.050 314.805,343.000 313.479 L 352.000 311.067 352.000 171.533 L 352.000 32.000 326.262 32.000 C 296.319 32.000,254.905 40.032,222.679 52.090 L 200.000 60.575 177.321 52.090 C 145.095 40.032,103.681 32.000,73.738 32.000 L 48.000 32.000 48.000 171.533 M139.157 61.781 C 152.165 65.152,169.376 70.654,177.404 74.009 L 192.000 80.107 192.000 200.482 C 192.000 313.481,191.571 320.691,185.000 318.167 C 162.674 309.592,118.129 299.504,93.000 297.332 L 64.000 294.826 64.000 172.835 L 64.000 50.843 89.753 53.248 C 103.917 54.571,126.148 58.411,139.157 61.781 M336.000 173.413 L 336.000 294.826 307.000 297.332 C 281.843 299.506,237.323 309.593,214.941 318.190 C 208.277 320.750,207.941 314.130,208.941 199.979 L 210.000 79.057 228.709 71.710 C 252.681 62.295,297.168 52.745,319.000 52.326 L 336.000 52.000 336.000 173.413 M16.000 207.533 L 16.000 343.067 25.000 345.479 C 29.950 346.805,43.214 347.915,54.476 347.945 C 82.625 348.020,139.898 358.432,172.724 369.442 L 200.000 378.590 227.276 369.442 C 260.102 358.432,317.375 348.020,345.524 347.945 C 356.786 347.915,370.050 346.805,375.000 345.479 L 384.000 343.067 384.000 207.533 C 384.000 74.667,383.843 72.000,376.000 72.000 C 368.167 72.000,368.000 74.667,368.000 200.000 L 368.000 328.000 347.000 328.016 C 318.801 328.038,259.663 337.893,226.770 348.053 L 200.000 356.321 173.230 348.053 C 140.337 337.893,81.199 328.038,53.000 328.016 L 32.000 328.000 32.000 200.000 C 32.000 74.667,31.833 72.000,24.000 72.000 C 16.157 72.000,16.000 74.667,16.000 207.533 " stroke="none" fill="#3366cc" fill-rule="evenodd"></path></g></svg>