<svg xmlns:rdf="http://www.w3.org/1999/02/22-rdf-syntax-ns#" xmlns="http://www.w3.org/2000/svg" xml:space="preserve" height="186.78101" width="289.10199" version="1.1" xmlns:cc="http://creativecommons.org/ns#" xmlns:dc="http://purl.org/dc/elements/1.1/"><metadata><rdf:RDF><cc:Work rdf:about=""><dc:format>image/svg+xml</dc:format><dc:type rdf:resource="http://purl.org/dc/dcmitype/StillImage"/><dc:title/></cc:Work></rdf:RDF></metadata><path fill="#000" d="M258.4375,4.65625c-2.3009,0-4.17055,0.7792002-5.625,2.3125-1.45635,1.5323498-2.1875,3.66465-2.1875,6.375,0,1.43355,0.31239,2.77905,0.9375,4.0625,0.62509,1.28345,1.5397,2.2893,2.75,3.03125s2.58885,1.125,4.125,1.125c1.41835,0,2.71295-0.32835,3.9375-1,1.22551-0.67165,2.1759-1.6625,2.84375-2.96875s1-2.78165,1-4.4375c0-1.6321-0.3029-3.11805-0.9375-4.40625s-1.57094-2.27895-2.78125-3c-1.20935-0.7201-2.5539-1.09375-4.0625-1.09375zm10.65625,0.28125,0,16.34375,2.15625,0,0-7.6875,8.46875,0,0,7.6875,2.15625,0,0-16.34375-2.15625,0,0,6.71875-8.46875,0,0-6.71875-2.15625,0zm-10.65625,1.59375c1.0773,0,2.07301,0.2672,2.9375,0.8125,0.86545,0.5453,1.5194,1.32165,1.96875,2.3125s0.65625,2.14065,0.65625,3.46875c0,2.10045-0.51275,3.73215-1.5625,4.875-1.0526,1.14285-2.4039,1.71875-4.03125,1.71875-1.59505,0-2.9114-0.5873-3.96875-1.71875-1.05925-1.1324-1.59375-2.6585-1.59375-4.625,0-2.45575,0.5514-4.23055,1.65625-5.28125,1.102-1.04975,2.40896-1.5625,3.9375-1.5625zm-7.03125,15.46875-5.3125,25.5-34.28125,11.125,2.75-36.59375-7.28125,0,2.71875,36.25-31.71875-18.34375-33.4375,19.34375,0,37.71875-30.9375,17.84375,2.71875-36.21875-7.28125,0,2.71875,36.21875-31.75-18.3125-33.4375,19.3125,0,34.4375-25.0625,14.4375,0.8125,1.4375,24.25-14.03125,0,2.34375,2.03125,1.1875-24.25,13.96875,0.8125,1.40625,25-14.46875,29.84375,17.25,32.65625-18.875,32.65625,18.875,33.4375-19.34375,0-37.71875,31.9375-18.4375,36.09375,11.75,22.84375-31.4375-22.21875-30.59375,10.625-23.8125-6.9375-2.21875zm-73.125,19.84375,31.8125,18.375,0,36.78125-30.875,17.8125,2.71875-25.09375-7.3125,0,2.6875,25.09375-30.875-17.8125,0-36.78125,31.84375-18.375zm68.1875,7.21875,21.46875,29.5625-21.46875,29.53125-34.75-11.3125,0-36.53125,34.75-11.25zm-74.5625,22.1875,0,16.34375,2.15625,0,0-7.6875,8.4375,0,0,7.6875,2.1875,0,0-16.34375-2.1875,0,0,6.71875-8.4375,0,0-6.71875-2.15625,0zm-91.59375,27.125,31.84375,18.375,0,36.78125-31.84375,18.375-31.8125-18.375,0-36.78125,31.8125-18.375zm65.3125,0,31.84375,18.375,0,36.78125-31.84375,18.375-31.875-18.375,0-36.78125,31.875-18.375zm-0.78125,3.125-0.21875,1.625,2,0-0.1875-1.625-1.59375,0zm65.25,0-0.1875,1.625,2,0-0.1875-1.625-1.625,0zm-65.78125,4.53125-0.1875,1.59375,3.03125,0-0.1875-1.59375-2.65625,0zm65.25,0-0.1875,1.59375,3.03125,0-0.1875-1.59375-2.65625,0zm-65.8125,4.4375-0.21875,1.625,4.15625,0-0.1875-1.625-3.75,0zm65.3125,0-0.21875,1.625,4.15625,0-0.1875-1.625-3.75,0zm-65.84375,4.53125-0.1875,1.625,5.15625,0-0.1875-1.625-4.78125,0zm65.3125,0-0.1875,1.625,5.15625,0-0.1875-1.625-4.78125,0zm-65.84375,4.5-0.1875,1.625,6.21875,0-0.1875-1.625-5.84375,0zm65.3125,0-0.1875,1.625,6.21875,0-0.1875-1.625-5.84375,0zm-65.84375,4.53125-0.1875,1.59375,7.28125,0-0.1875-1.59375-6.90625,0zm65.3125,0-0.1875,1.59375,7.28125,0-0.1875-1.59375-6.90625,0zm-68.21875,3.75,0,16.34375,2.1875,0,0-7.6875,8.4375,0,0,7.6875,2.15625,0,0-16.34375-2.15625,0,0,6.71875-8.4375,0,0-6.71875-2.1875,0zm65.3125,0,0,16.34375,2.1875,0,0-7.6875,8.4375,0,0,7.6875,2.15625,0,0-16.34375-2.15625,0,0,6.71875-8.4375,0,0-6.71875-2.1875,0zm-97.625,22.28125-27.03125,15.5625,0.8125,1.375,27-15.5625-0.78125-1.375zm-91.90625,15.15625c-2.3009,0-4.1696,0.7792-5.625,2.3125-1.4553998,1.53235-2.1875,3.6334-2.1875,6.34375,0,1.43355,0.31335,2.8103,0.9375,4.09375s1.5397,2.2893,2.75,3.03125,2.5879,1.125,4.125,1.125c1.41835,0,2.74325-0.3596,3.96875-1.03125s2.1759-1.6625,2.84375-2.96875,1-2.78165,1-4.4375c0-1.6321-0.30195-3.0868-0.9375-4.375s-1.57095-2.27895-2.78125-3c-1.2103-0.7201-2.5861-1.09375-4.09375-1.09375zm0.03125,1.84375c1.07635,0,2.0408,0.29845,2.90625,0.84375s1.5194,1.2904,1.96875,2.28125,0.6875,2.1719,0.6875,3.5c0,2.10045-0.54305,3.7009-1.59375,4.84375-1.05165,1.14285-2.3736,1.71875-4,1.71875-1.596,0-2.9417-0.5551-4-1.6875s-1.5625-2.68975-1.5625-4.65625c0-2.45575,0.52205-4.20025,1.625-5.25s2.43925-1.59375,3.96875-1.59375z" transform="translate(0,-6.2420738e-6)"/></svg>

